<svg id="Layer_1" data-name="Layer 1" xmlns="http://www.w3.org/2000/svg" viewBox="0 0 640 480"><defs><style>.cls-1{fill:#19a3c4;}</style></defs><title>linkedin</title><rect class="cls-1" x="75.09" y="155.97" width="107.9" height="324.03"/><path class="cls-1" d="M537.11,185.57q-34-37.11-89.92-37.12a129.59,129.59,0,0,0-37.44,5.07q-16.84,5.07-28.45,14.22A121.82,121.82,0,0,0,350.08,202V156H242.5l.33,15.7q.33,15.7.33,96.78T242.5,480H350.08V299.18q0-16.67,3.59-26.49a69.45,69.45,0,0,1,20.76-28q13.9-11.29,34.5-11.29,28.11,0,41.36,19.45t13.24,53.79V480H571.12V294.28Q571.11,222.66,537.11,185.57Z"/><path class="cls-1" d="M129.7,0q-27.14,0-44,15.86T68.88,55.91q0,23.86,16.35,39.89t43.16,16H129q27.47,0,44.31-16t16.51-39.89q-.33-24.2-16.68-40.05T129.7,0Z"/></svg>