<?xml version="1.0" encoding="utf-8"?>
<!-- Generator: Adobe Illustrator 22.1.0, SVG Export Plug-In . SVG Version: 6.00 Build 0)  -->
<svg version="1.1" id="Layer_1" xmlns="http://www.w3.org/2000/svg" xmlns:xlink="http://www.w3.org/1999/xlink" x="0px" y="0px"
	 viewBox="0 0 640 480" style="enable-background:new 0 0 640 480;" xml:space="preserve">
<style type="text/css">
	.st0{fill:#2F68B2;}
</style>
<title>linkedin</title>
<rect x="75.1" y="156" class="st0" width="107.9" height="324"/>
<path class="st0" d="M537.1,185.6c-22.7-24.7-52.6-37.1-89.9-37.1c-12.7-0.1-25.3,1.6-37.4,5.1c-11.2,3.4-20.7,8.1-28.5,14.2
	c-12.5,9.3-23.1,20.9-31.2,34.3v-46H242.5l0.3,15.7c0.2,10.5,0.3,42.7,0.3,96.8c0,54.1-0.2,124.6-0.7,211.5h107.6V299.2
	c0-11.1,1.2-19.9,3.6-26.5c4.4-10.9,11.6-20.6,20.8-28c9.3-7.5,20.8-11.3,34.5-11.3c18.7,0,32.5,6.5,41.4,19.4
	c8.8,13,13.2,30.9,13.2,53.8V480h107.6V294.3C571.1,246.5,559.8,210.3,537.1,185.6z"/>
<path class="st0" d="M129.7,0c-18.1,0-32.8,5.3-44,15.9s-16.8,23.9-16.8,40c0,15.9,5.4,29.2,16.3,39.9s25.3,16,43.2,16h0.6
	c18.3,0,33.1-5.3,44.3-16s16.7-24,16.5-39.9c-0.2-16.1-5.8-29.5-16.7-40S147.8,0,129.7,0z"/>
</svg>
