<?xml version="1.0" encoding="utf-8"?>
<!-- Generator: Adobe Illustrator 21.0.2, SVG Export Plug-In . SVG Version: 6.00 Build 0)  -->
<svg version="1.1" id="Layer_1" xmlns="http://www.w3.org/2000/svg" xmlns:xlink="http://www.w3.org/1999/xlink" x="0px" y="0px"
	 viewBox="0 0 640 480" style="enable-background:new 0 0 640 480;" xml:space="preserve">
<style type="text/css">
	.st0{fill:#4CD6F6;}
	.st1{fill:#3AC4E4;}
	.st2{fill:#29B3D4;}
	.st3{fill:#19A3C4;}
</style>
<g>
	<path class="st0" d="M589.2,479L415,395.3l-1.3-379.7c0-8.9,9.2-14.7,17.2-10.9L596,84.2c4.2,2,6.8,6.2,6.8,10.8v375.4
		C602.8,477.5,595.5,482.1,589.2,479z"/>
	<path class="st1" d="M415,395.3l-188.6-90.7L407.9,5.8c3.2-5.3,9.9-7.3,15.5-4.6l167.5,80.5c6.4,3.1,8.7,11,5,17.1L415,395.3z"/>
	<path class="st2" d="M415,395.3l-188.6-90.7L53.6,23.2c-4.8-7.8,3.6-17.1,11.9-13.1l161,77.4L415,395.3z"/>
	<path class="st3" d="M212.8,479L42.6,397.2c-3.3-1.6-5.4-4.9-5.4-8.6V11.1c0-6.8,7.1-11.3,13.2-8.3l176,84.6v383
		C226.4,477.5,219.1,482.1,212.8,479z"/>
</g>
</svg>
